<svg xmlns="http://www.w3.org/2000/svg" version="1.1" xmlns:xlink="http://www.w3.org/1999/xlink" width="1000" height="1000"><metadata><rdf:RDF xmlns:rdf="http://www.w3.org/1999/02/22-rdf-syntax-ns#" xmlns:dc="http://purl.org/dc/elements/1.1/"><rdf:Description><dc:creator>RealFaviconGenerator</dc:creator><dc:source>https://realfavicongenerator.net</dc:source></rdf:Description></rdf:RDF></metadata><g clip-path="url(#SvgjsClipPath1081)"><rect width="1000" height="1000" fill="#ffffff"></rect><g transform="matrix(1.4,0,0,1.4,150,150)"><svg xmlns="http://www.w3.org/2000/svg" width="500" height="500" viewBox="0 0 500 500" fill="none"><path d="M500 500H0V0H500V500ZM370.658 250C352.62 250 336.281 253.954 321.641 261.862C307.001 269.705 295.366 281.306 286.739 296.665C278.112 311.959 273.799 330.782 273.799 353.135C273.799 375.356 278.014 394.147 286.445 409.506C294.942 424.865 306.477 436.498 321.052 444.406C335.692 452.314 352.227 456.269 370.658 456.27C385.364 456.27 398.272 454.014 409.383 449.505C420.494 444.995 429.807 439.047 437.323 431.662C444.905 424.211 450.755 416.107 454.872 407.349C458.99 398.525 461.375 389.866 462.028 381.369L406.736 380.977C406.083 385.29 404.808 389.18 402.913 392.644C401.083 396.042 398.697 398.95 395.756 401.368C392.815 403.786 389.351 405.65 385.364 406.957C381.377 408.199 376.868 408.819 371.835 408.819C363.012 408.819 355.463 406.761 349.188 402.644C342.914 398.461 338.111 392.251 334.777 384.017C331.509 375.716 329.875 365.422 329.875 353.135C329.875 341.501 331.476 331.534 334.679 323.233C337.947 314.933 342.718 308.561 348.992 304.116C355.332 299.672 363.077 297.45 372.228 297.45C377.456 297.45 382.129 298.202 386.246 299.705C390.364 301.143 393.861 303.234 396.736 305.979C399.677 308.658 401.965 311.862 403.599 315.587C405.298 319.312 406.344 323.462 406.736 328.037H462.028C460.983 315.554 458.009 304.476 453.107 294.803C448.206 285.13 441.735 276.993 433.696 270.392C425.657 263.725 416.311 258.66 405.657 255.196C395.004 251.732 383.337 250 370.658 250ZM89 252.744V296.665H149.391V453.523H203.114V296.665H263.505V252.744H89Z" fill="#66007D"></path></svg></g></g><defs><clipPath id="SvgjsClipPath1081"><rect width="1000" height="1000" x="0" y="0" rx="0" ry="0"></rect></clipPath></defs></svg>